# xmcd
#
# Track frame offsets:
#   150
#   16178
#   35403
#   46858
#   61320
#   79354
#   90942
#   104803
#   121379
#   131987
#   144451
#
# Disc length: 2090 seconds
#
# Revision: 0
# Processed by: cddbd v1.5.2PL0 Copyright (c) Steve Scherf et al.
# Submitted via: GXTranscoder 2.0.1939
#
DISCID=9308280b
DTITLE=Amy Winehouse - Back to Black
DYEAR=1900
DGENRE=UnClassifiable
TTITLE0=Rehab
TTITLE1=You know I´m no good
TTITLE2=Me and Mr. Jones
TTITLE3=Just Friends
TTITLE4=Back to black
TTITLE5=Love is a losing game
TTITLE6=Tears dry on their own
TTITLE7=Wake up alone
TTITLE8=Some unholy way
TTITLE9=He can only hold her
TTITLE10=You know I´m no good (Remix)
EXTD=
EXTT0=
EXTT1=
EXTT2=
EXTT3=
EXTT4=
EXTT5=
EXTT6=
EXTT7=
EXTT8=
EXTT9=
EXTT10=
PLAYORDER=
